<?xml version="1.0" encoding="utf-8"?>
<!-- Generator: Adobe Illustrator 18.1.1, SVG Export Plug-In . SVG Version: 6.00 Build 0)  -->
<svg version="1.1" id="GREAT_BRITAIN" xmlns="http://www.w3.org/2000/svg" xmlns:xlink="http://www.w3.org/1999/xlink" x="0px"
	 y="0px" viewBox="0 0 383.8 252" enable-background="new 0 0 383.8 252" xml:space="preserve">
<g>
	<rect x="0" y="0" fill="#084CA1" width="383.8" height="252"/>
	<path fill="#FFFFFF" d="M383.8,0h-48l-100,65.6c0-27.7,0-65.6,0-65.6h-88c0,0,0,40.4,0,68.3L42,0H0v34.1l75.8,49.2
		c-38.1,0-75.8,0-75.8,0v87.3c0,0,37.3,0,75.2,0L0,220.1V252h49.7l98-64.5c0,27.2,0,64.5,0,64.5h88c0,0,0-38.3,0-65.6L337,252h46.8
		v-31.5l-77-49.9c38.6,0,77,0,77,0V83.3c0,0-38.2,0-76.6,0l76.6-50.4V0z"/>
	<g>
		<path fill="#ED1C24" d="M123.5,83.3L0,0v22l92.3,61.3C103.5,83.3,114.2,83.3,123.5,83.3z"/>
		<path fill="#ED1C24" d="M260.4,170.6L383.8,252l0,0v-20.4l-92.1-61C280.5,170.6,269.7,170.6,260.4,170.6z"/>
		<path fill="#ED1C24" d="M147.7,170.6c-5.7,0-14.7,0-25.4,0L0,252l0,0h29.3l118.4-77.4C147.7,173.2,147.7,171.8,147.7,170.6z"/>
		<path fill="#ED1C24" d="M235.8,83.3c5.4,0,13.7,0,23.7,0L383.8,2V0h-28l-120,78.1C235.8,80,235.8,81.7,235.8,83.3z"/>
	</g>
	<polygon fill="#ED1C24" points="383.8,101.8 216.9,101.8 216.9,0 166.6,0 166.6,101.8 0,101.8 0,152 166.6,152 166.6,252
		216.9,252 216.9,152 383.8,152 	"/>
</g>
</svg>
