<?xml version="1.0" encoding="utf-8"?>
<!-- Generator: Adobe Illustrator 19.0.0, SVG Export Plug-In . SVG Version: 6.00 Build 0)  -->
<svg version="1.1" id="Calque_1" xmlns="http://www.w3.org/2000/svg" xmlns:xlink="http://www.w3.org/1999/xlink" x="0px" y="0px"
	 viewBox="9 215 412 411.7" style="enable-background:new 9 215 412 411.7;" xml:space="preserve">
<style type="text/css">
	.st0{fill:#EFEFEF;}
</style>
<path id="map-2-icon" class="st0" d="M311.5,476.9c-7.6,0-15-1.5-22-4.5l8.2-19c4.4,1.9,9,2.8,13.8,2.8c3.9,0,7.8-0.7,11.5-1.9
	l6.8,19.5C323.9,475.9,317.7,476.9,311.5,476.9z M119.7,476.6c-6.6,0-13-1.2-19.2-3.4l7.2-19.4c3.9,1.4,7.9,2.1,12,2.1
	c4.6,0,9-0.9,13.2-2.6l7.9,19.1C134.1,475.2,127,476.6,119.7,476.6z M272,462.8l-29.1-16.6l10.2-18l29.1,16.6L272,462.8z
	 M158.6,462.5L148,444.7l28.8-17.2l10.6,17.7L158.6,462.5z M227.4,437.7c-4.3-1.8-8.8-2.7-13.4-2.7c-4.1,0-8,0.7-11.8,2.1l-7-19.5
	c6.1-2.2,12.4-3.3,18.9-3.3c7.4,0,14.6,1.4,21.4,4.3L227.4,437.7z M356.1,434.9c-9.4,0-17,7.6-17,17c0,9.4,7.6,17,17,17
	s17-7.6,17-17C373.1,442.5,365.4,434.9,356.1,434.9z M74.1,434.9c-9.4,0-17,7.6-17,17c0,9.4,7.6,17,17,17s17-7.6,17-17
	C91.1,442.5,83.4,434.9,74.1,434.9z M421,280.2c0-36-29.2-65.2-65.2-65.2c-36,0-65.2,29.2-65.2,65.2c0,53.5,51.2,59.2,65.2,140.5
	C369.8,339.4,421,333.7,421,280.2z M332.5,278.6c0-12.9,10.5-23.4,23.4-23.4c12.9,0,23.4,10.5,23.4,23.4c0,12.9-10.5,23.4-23.4,23.4
	C342.9,302,332.5,291.5,332.5,278.6z M391,403.4v143.5l-75,40.7v-90.2h-15v88.6L219.2,533v-75.4h-14.3V533L125,585.9v-88.6h-15v90.2
	l-71-40.7V320l71,37.9v76h15v-75.3l79.8-41.4v78.9h14.3v-78.9l71,35.9c-10.3-13-21-27.4-26.2-47.2L212,279.5l-93.8,48.7L9,270.1
	v294.3l109.2,62.3l93.8-62.3l95.8,62.3L421,564.4V353.8c-0.7,0.8-1.3,1.7-2,2.5C408.2,369.8,397.9,382.7,391,403.4z"/>
</svg>
